<svg width="30" height="29.085" viewBox="0 0 30 29.085" xmlns="http://www.w3.org/2000/svg">
    <g fill="#39AD90" fill-rule="nonzero">
        <path d="m22.255 15.277-1.527-1.597-7.62 7.288-3.806-3.803-1.564 1.564 5.337 5.337z"/>
        <path d="M8.114 0h-.981a2.582 2.582 0 0 0-2.582 2.582v.369h-.494A4.057 4.057 0 0 0 0 7.008v18.02a4.057 4.057 0 0 0 4.057 4.057h21.886A4.057 4.057 0 0 0 30 25.028V7.011a4.057 4.057 0 0 0-4.057-4.057h-.494v-.369A2.582 2.582 0 0 0 22.867.004h-.981a2.582 2.582 0 0 0-2.582 2.581v.37h-8.608v-.37A2.582 2.582 0 0 0 8.114 0zM6.761 2.582c0-.204.165-.37.368-.37h.985c.204 0 .369.166.369.37v2.95a.369.369 0 0 1-.369.37h-.981a.369.369 0 0 1-.369-.37l-.003-2.95zm21.022 22.446a1.844 1.844 0 0 1-1.844 1.844H4.057a1.844 1.844 0 0 1-1.844-1.844V12.584h25.574l-.004 12.444zm-6.27-22.446c0-.204.166-.37.37-.37h.984c.204 0 .369.166.369.37v2.95a.369.369 0 0 1-.369.37h-.981a.369.369 0 0 1-.369-.37l-.004-2.95zM19.3 5.164v.368a2.582 2.582 0 0 0 2.582 2.582h.985a2.582 2.582 0 0 0 2.582-2.582v-.368h.49c1.019 0 1.844.825 1.844 1.844v3.356H2.213V7.008c0-1.019.826-1.844 1.844-1.844h.49v.368A2.582 2.582 0 0 0 7.13 8.114h.985a2.582 2.582 0 0 0 2.582-2.582v-.368H19.3z"/>
    </g>
</svg>
