<svg width="30" height="31.333" viewBox="0 0 30 31.333" xmlns="http://www.w3.org/2000/svg">
    <path d="M15 0c-1.645 0-3 1.355-3 3s1.355 3 3 3 3-1.355 3-3-1.355-3-3-3zm0 2c.564 0 1 .436 1 1 0 .564-.436 1-1 1-.564 0-1-.436-1-1 0-.564.436-1 1-1zm0 4.333c-1.508 0-2.887.26-3.99.823C9.908 7.72 9 8.716 9 9.99V14c0 .524.476 1 1 1h10c.524 0 1-.476 1-1V9.99c0-1.274-.908-2.271-2.01-2.834-1.103-.563-2.482-.823-3.99-.823zm0 2c1.262 0 2.379.245 3.083.605.705.36.917.683.917 1.052V13h-8V9.99c0-.369.212-.693.917-1.052.704-.36 1.821-.605 3.083-.605zm-.01 7.313c-.528.005-1.001.494-.99 1.02v2.761l-2.844 1.708c-.469.258-.652.928-.378 1.388.273.46.949.62 1.4.331L15 21.156l2.823 1.698c.45.289 1.126.129 1.4-.331.273-.46.09-1.13-.38-1.388L16 19.427v-2.76c.011-.534-.476-1.027-1.01-1.021zM6 16.333c-1.645 0-3 1.355-3 3s1.355 3 3 3 3-1.355 3-3-1.355-3-3-3zm18 0c-1.645 0-3 1.355-3 3s1.355 3 3 3 3-1.355 3-3-1.355-3-3-3zm-18 2c.564 0 1 .436 1 1 0 .564-.436 1-1 1-.564 0-1-.436-1-1 0-.564.436-1 1-1zm18 0c.564 0 1 .436 1 1 0 .564-.436 1-1 1-.564 0-1-.436-1-1 0-.564.436-1 1-1zM6 22.667c-1.508 0-2.887.26-3.99.823C.908 24.052 0 25.05 0 26.323v4.01c0 .524.476 1 1 1h10c.524 0 1-.476 1-1v-4.01c0-1.274-.908-2.27-2.01-2.833-1.103-.563-2.482-.823-3.99-.823zm18 0c-1.508 0-2.887.26-3.99.823-1.102.562-2.01 1.56-2.01 2.833v4.01c0 .524.476 1 1 1h10c.524 0 1-.476 1-1v-4.01c0-1.274-.908-2.27-2.01-2.833-1.103-.563-2.482-.823-3.99-.823zm-18 2c1.262 0 2.379.244 3.083.604.705.36.917.684.917 1.052v3.01H2v-3.01c0-.368.212-.693.917-1.052.704-.36 1.821-.604 3.083-.604zm18 0c1.262 0 2.379.244 3.083.604.705.36.917.684.917 1.052v3.01h-8v-3.01c0-.368.212-.693.917-1.052.704-.36 1.821-.604 3.083-.604z" fill="#39AD90" fill-rule="nonzero"/>
</svg>
