<svg width="34" height="34" viewBox="0 0 34 34" xmlns="http://www.w3.org/2000/svg">
    <path d="M17 31.571C8.965 31.571 2.429 25.035 2.429 17S8.965 2.429 17 2.429 31.571 8.965 31.571 17 25.035 31.571 17 31.571M17 0C7.611 0 0 7.611 0 17s7.611 17 17 17 17-7.611 17-17S26.389 0 17 0m4.048 22.262h-2.834V13.32c0-.67-.543-1.215-1.214-1.215-.07 0-.136.01-.202.02a1.19 1.19 0 0 0-.203-.02h-2.428a1.214 1.214 0 1 0 0 2.429h1.619v7.727h-2.834a1.214 1.214 0 0 0 0 2.428h8.096a1.214 1.214 0 0 0 0-2.428m-4.334-11.15a1.5 1.5 0 1 0 0-3 1.5 1.5 0 0 0 0 3" fill="#39AD90" fill-rule="nonzero"/>
</svg>
