<svg width="29.629" height="30" viewBox="0 0 29.629 30" xmlns="http://www.w3.org/2000/svg">
    <g fill="#39AD90" fill-rule="nonzero">
        <path d="m15.556 15.556-4.445-4.444V20zM0 15.556l4.444-4.444V20z"/>
        <path d="M12.222 17.778h-10v-4.444h10z"/>
        <path d="M28.557 30c-.042 0-.085-.002-.127-.007L10.526 27.85a1.072 1.072 0 0 1-.944-1.064v-3.57a1.071 1.071 0 1 1 2.142 0v2.619l15.762 1.886V2.28L11.724 4.166v2.62a1.071 1.071 0 1 1-2.142 0V3.215c0-.542.405-1 .944-1.064L28.43.008a1.07 1.07 0 0 1 1.199 1.064v27.857A1.07 1.07 0 0 1 28.557 30z"/>
    </g>
</svg>
