<svg width="42" height="45" viewBox="0 0 42 45" xmlns="http://www.w3.org/2000/svg">
    <g fill="none" fill-rule="evenodd">
        <path d="M13.096 1a6.2 6.2 0 0 1 4.671 10.278h3.152c2.824.002 4.82.078 8.947 2.823 4.245 2.823 6.689 9.999 3.023 16.125-2.444 4.084-6.147 6.338-11.11 6.761-.514.38-.882.614-1.105.701-.744.293-1.928-.356-2.204 0-.6.774-.339 1.125-.752 2.768-.413 1.643-.418 1.55-.793 2.124-.865 1.322-2.196 1.95-3.669 1.95-1.372 0-2.73-.4-3.495-1.474-.455-.64-.748-1.507-.878-2.6V19.488H4.8c-2.695-.312-4.042-1.66-4.042-4.042 0-2.384 1.347-3.773 4.042-4.168h3.625A6.2 6.2 0 0 1 13.096 1z" stroke="#696969" stroke-width=".75" fill="#FFF"/>
        <path d="M20.175 1a6.2 6.2 0 0 1 4.67 10.28l3.393-.002c2.7.008 4.698.156 8.707 2.823 4.245 2.823 6.689 9.999 3.023 16.125-2.444 4.084-6.286 6.095-11.524 6.032-.66.031-1.1.09-1.323.178-.744.292-1.296.896-1.572 1.252-.6.774-.339 1.125-.752 2.768-.413 1.643-.418 1.55-.793 2.124-.865 1.322-2.196 1.95-3.669 1.95-1.372 0-2.73-.4-3.495-1.474-.41-.576-.688-1.336-.834-2.279l-.045-.321v-5.448a4.499 4.499 0 0 0 8.22-2.284l.006-.064c0-2.892 1.09-4.33 3.638-4.427.142-.005.347-.007.618-.007.08.005.161.007.242.007l.194-.004.395.004a93.18 93.18 0 0 0-.018-.036 4.498 4.498 0 1 0-4.87-5.788c-.102.26-.169.633-.2 1.12-.258 4.145-3.548 4.45-4.331 4.463h-.09a4.494 4.494 0 0 0-3.803 1.977V19.489h-4.083c-2.695-.312-4.043-1.66-4.043-4.042 0-2.307 1.262-3.682 3.786-4.127l.257-.041h3.625A6.2 6.2 0 0 1 20.175 1z" fill="#D71B34"/>
    </g>
</svg>
