<svg width="30" height="22.08" viewBox="0 0 30 22.08" xmlns="http://www.w3.org/2000/svg">
    <g fill="#fff" fill-rule="nonzero">
        <path d="M25.62.403a1.354 1.354 0 0 0-1.928 0 1.354 1.354 0 0 0 0 1.927c4.803 4.804 4.803 12.609 0 17.412a1.354 1.354 0 0 0 0 1.928c.253.252.6.41.948.41.347 0 .695-.126.948-.41 5.877-5.878 5.877-15.421.031-21.267z"/>
        <path d="M21.1 4.89a1.354 1.354 0 0 0-1.927 0 1.354 1.354 0 0 0 0 1.928c2.307 2.306 2.339 6.098 0 8.405a1.354 1.354 0 0 0 0 1.928c.253.253.6.41.948.41s.695-.126.948-.41c3.444-3.381 3.413-8.88.032-12.26zM6.312 2.33a1.354 1.354 0 0 0 0-1.927 1.354 1.354 0 0 0-1.928 0c-5.845 5.846-5.845 15.389 0 21.235.253.253.6.41.948.41s.696-.126.948-.41a1.354 1.354 0 0 0 0-1.928C1.51 14.94 1.51 7.134 6.312 2.33z"/>
        <path d="M10.8 6.818a1.354 1.354 0 0 0 0-1.928 1.354 1.354 0 0 0-1.928 0c-3.382 3.381-3.382 8.88 0 12.26.252.254.6.412.948.412.347 0 .695-.127.948-.411a1.354 1.354 0 0 0 0-1.928c-2.276-2.307-2.276-6.099.031-8.405z"/>
        <circle cx="15.002" cy="11.02" r="2.307"/>
    </g>
</svg>
