<svg width="96" height="82" viewBox="0 0 96 82" xmlns="http://www.w3.org/2000/svg">
    <path d="m74.768 29 20 18H96v29c0 3.309-2.691 6-6 6H6c-3.309 0-6-2.691-6-6V47h1.232l20-18h53.536zM28.153 51H4v25c0 1.103.897 2 2 2h84c1.103 0 2-.897 2-2V51H67.847C66.882 57.223 61.488 62 55 62H41c-6.488 0-11.882-4.777-12.847-11zm45.079-18H22.768L7.21 47H32v2c0 4.963 4.037 9 9 9h14c4.963 0 9-4.037 9-9v-2h24.79L73.232 33zM28.687 1.928l7 11-3.374 2.148-7-11 3.374-2.148zm39.626-.003 3.375 2.147-6.999 11-3.375-2.147 7-11zM50 0v13h-4V0h4z" fill="#CBEAE4" fill-rule="nonzero"/>
</svg>
