<?xml version="1.0" encoding="UTF-8"?>
<svg width="13.077381px" height="13px" viewBox="0 0 13.077381 13" version="1.1" xmlns="http://www.w3.org/2000/svg" xmlns:xlink="http://www.w3.org/1999/xlink">
    <title>512A971F-57A6-48A5-8081-0FE55FD0E307</title>
    <g id="Symbols" stroke="none" stroke-width="1" fill="none" fill-rule="evenodd">
        <g id="Icon/Times" fill="#fff">
            <path d="M0.0113894128,5.18680169 L13.1433725,5.18680169 C13.8686319,5.18680169 14.4565708,5.7747406 14.4565708,6.5 C14.4565708,7.2252594 13.8686319,7.81319831 13.1433725,7.81319831 L0.0113894128,7.81319831 C-0.713869986,7.81319831 -1.3018089,7.2252594 -1.3018089,6.5 C-1.3018089,5.7747406 -0.713869986,5.18680169 0.0113894128,5.18680169 Z" id="Rectangle" transform="translate(6.577381, 6.500000) rotate(-315.000000) translate(-6.577381, -6.500000) "></path>
            <path d="M-0.0659915396,5.18680169 L13.0659915,5.18680169 C13.7912509,5.18680169 14.3791898,5.7747406 14.3791898,6.5 C14.3791898,7.2252594 13.7912509,7.81319831 13.0659915,7.81319831 L-0.0659915396,7.81319831 C-0.791250939,7.81319831 -1.37918985,7.2252594 -1.37918985,6.5 C-1.37918985,5.7747406 -0.791250939,5.18680169 -0.0659915396,5.18680169 Z" id="Rectangle-Copy" transform="translate(6.500000, 6.500000) rotate(-585.000000) translate(-6.500000, -6.500000) "></path>
        </g>
    </g>
</svg>