<svg width="18" height="17" viewBox="0 0 18 17" xmlns="http://www.w3.org/2000/svg" xmlns:xlink="http://www.w3.org/1999/xlink">
    <defs>
        <path id="a" d="M0 0h18v16.29H0z"/>
        <path id="c" d="M0 17.477h18V0H0z"/>
    </defs>
    <g fill="none" fill-rule="evenodd">
        <path d="M13.228 3.585a.628.628 0 0 0 .628-.628V.627a.628.628 0 1 0-1.256 0v2.33c0 .347.281.628.628.628" fill="#797979"/>
        <g transform="translate(0 1.186)">
            <mask id="b" fill="#fff">
                <use xlink:href="#a"/>
            </mask>
            <path d="M15.614 15.035H2.386c-.623 0-1.13-.57-1.13-1.271V5.09h15.488v8.673c0 .7-.507 1.27-1.13 1.27m0-15.034h-1.256v1.256h1.256c.623 0 1.13.57 1.13 1.271v1.308H1.256V2.527c0-.7.507-1.271 1.13-1.271h1.256V0H2.386C1.07 0 0 1.134 0 2.527v11.237c0 1.393 1.07 2.527 2.386 2.527h13.228c1.316 0 2.386-1.134 2.386-2.527V2.527C18 1.134 16.93 0 15.614 0" fill="#797979" mask="url(#b)"/>
        </g>
        <mask id="d" fill="#fff">
            <use xlink:href="#c"/>
        </mask>
        <path fill="#797979" mask="url(#d)" d="M5.902 2.442h6.196V1.186H5.902zM4.772 3.585a.628.628 0 0 0 .628-.628V.627a.628.628 0 1 0-1.256 0v2.33c0 .347.281.628.628.628M8.413 9.805h1.175V8.643H8.413v1.162zm1.708-2.229H7.88a.534.534 0 0 0-.534.534v2.229c0 .294.24.533.534.533h2.242a.534.534 0 0 0 .534-.533v-2.23a.534.534 0 0 0-.534-.533zM12.834 9.805h1.175V8.643h-1.175v1.162zm1.709-2.229h-2.242a.534.534 0 0 0-.534.534v2.229c0 .294.24.533.534.533h2.242a.534.534 0 0 0 .534-.533v-2.23a.534.534 0 0 0-.534-.533zM3.99 9.805h1.176V8.643H3.99v1.162zM5.7 7.576H3.456a.534.534 0 0 0-.533.534v2.229c0 .294.238.533.533.533h2.242a.534.534 0 0 0 .534-.533v-2.23a.534.534 0 0 0-.534-.533zM8.413 13.951h1.175V12.79H8.413v1.162zm1.708-2.229H7.88a.534.534 0 0 0-.534.534v2.229c0 .294.24.533.534.533h2.242a.534.534 0 0 0 .534-.533v-2.23a.533.533 0 0 0-.534-.533zM3.99 13.951h1.176V12.79H3.99v1.162zm1.71-2.229H3.456a.533.533 0 0 0-.533.534v2.229c0 .294.238.533.533.533h2.242a.534.534 0 0 0 .534-.533v-2.23a.533.533 0 0 0-.534-.533z"/>
    </g>
</svg>
