<svg width="20" height="20" viewBox="0 0 20 20" xmlns="http://www.w3.org/2000/svg" xmlns:xlink="http://www.w3.org/1999/xlink">
    <defs>
        <path id="a" d="M0 0h2.4v16.8H0z"/>
        <path id="c" d="M0 0h9.6v20H0z"/>
    </defs>
    <g fill="none" fill-rule="evenodd">
        <g transform="translate(14.4 1.6)">
            <mask id="b" fill="#fff">
                <use xlink:href="#a"/>
            </mask>
            <path d="M2.1 0H0v1.12h1.2v14.56H0v1.12h2.1c.166 0 .3-.125.3-.28V.28C2.4.125 2.266 0 2.1 0" fill="#3AB395" mask="url(#b)"/>
        </g>
        <g transform="translate(4)">
            <mask id="d" fill="#fff">
                <use xlink:href="#c"/>
            </mask>
            <path d="M7.969 10.88a.873.873 0 0 1-.866-.88c0-.486.388-.88.866-.88.477 0 .865.394.865.88s-.388.88-.865.88M9.279.005.228 1.584A.278.278 0 0 0 0 1.859V18.14c0 .136.096.252.228.275l9.051 1.58c.168.03.321-.102.321-.275V.279a.276.276 0 0 0-.32-.275" fill="#3AB395" mask="url(#d)"/>
        </g>
    </g>
</svg>
