<?xml version="1.0" encoding="UTF-8"?>
<svg width="18px" height="18px" viewBox="0 0 18 18" version="1.1" xmlns="http://www.w3.org/2000/svg" xmlns:xlink="http://www.w3.org/1999/xlink">
    <title>976691D6-9248-4F9E-96D5-ECCACC5AF058</title>
    <defs>
        <polygon id="path-1" points="0 0 18 0 18 18 0 18"></polygon>
    </defs>
    <g id="Symbols" stroke="none" stroke-width="1" fill="none" fill-rule="evenodd">
        <g id="time">
            <g id="Group-3">
                <mask id="mask-2" fill="white">
                    <use xlink:href="#path-1"></use>
                </mask>
                <g id="Clip-2"></g>
                <path d="M9.00000131,1.38461096 C13.1988837,1.38461096 16.615389,4.80111629 16.615389,8.99999869 C16.615389,13.1988811 13.1988837,16.6153864 9.00000131,16.6153864 C4.8010144,16.6153864 1.38461358,13.1988811 1.38461358,8.99999869 C1.38461358,4.80111629 4.8010144,1.38461096 9.00000131,1.38461096 M9,17.9999974 C13.9623715,17.9999974 18,13.9624734 18,8.99999739 C18,4.03752399 13.9623715,-2.61262633e-06 9,-2.61262633e-06 C4.0375266,-2.61262633e-06 0,4.03752399 0,8.99999739 C0,13.9624734 4.0375266,17.9999974 9,17.9999974" id="Fill-1" fill="#797979" mask="url(#mask-2)"></path>
            </g>
            <path d="M12.6976644,12.8017854 C12.8247687,12.901849 12.9762488,12.9505745 13.1258739,12.9505745 C13.3305209,12.9505745 13.5333129,12.8603866 13.6703191,12.6873263 C13.907441,12.3871355 13.8560245,11.9517152 13.5558599,11.7146455 L9.69230809,8.66463937 L9.69230809,3.97625529 C9.69230809,3.59400193 9.38216322,3.28393544 9.00001437,3.28393544 C8.61776101,3.28393544 8.30769452,3.59400193 8.30769452,3.97625529 L8.30769452,8.99999608 C8.30769452,9.21185395 8.40498872,9.411955 8.57086437,9.54357912 L12.6976644,12.8017854 Z" id="Fill-4" fill="#797979"></path>
        </g>
    </g>
</svg>