<svg width="30" height="32" viewBox="0 0 30 32" xmlns="http://www.w3.org/2000/svg">
    <g fill="#fe0000" fill-rule="evenodd">
        <path d="M29.955 12.791a9.245 9.245 0 0 0-2.397-4.96c-.515-.541-2.844-2.86-6.503-2.807-3.349.049-5.504 2.047-5.985 2.505h-.278c-.193-.2-2.498-2.505-5.984-2.505C5.185 5.024.09 8.15.003 12.943c-.042 2.307.432 3.91.935 4.953.277.573.64 1.1 1.078 1.561l9.915 10.604v.033h.032l.556.601a.974.974 0 0 0 1.739-.597V19.116a1.169 1.169 0 0 0-1.168-1.155.953.953 0 0 0-.11 0v-6.076a1.948 1.948 0 0 1 3.897 0v6.082a.974.974 0 0 0-.11 0c-.64-.001-1.162.515-1.168 1.155V30.1a.974.974 0 0 0 1.739.597l.563-.601h.03v-.036l9.915-10.602a8.58 8.58 0 0 0 2.097-6.668h.012zm-17.73-4.295a.054.054 0 0 1-.013.011l-.148.128a4.263 4.263 0 0 0-1.407 3.165v7.48a1.168 1.168 0 0 0 1.168 1.168h.11v6.196L3.76 17.899c-.327-.327-1.49-1.707-1.436-4.74C2.388 9.63 6.16 7.33 8.855 7.33c1.241.014 2.45.39 3.48 1.085l-.11.08zM26.115 17.9l-8.172 8.74v-6.196h.11a1.168 1.168 0 0 0 1.167-1.17l-.011-7.473a4.263 4.263 0 0 0-1.392-3.16 4.423 4.423 0 0 0-.147-.128l-.014-.012-.099-.08c.457-.303.95-.549 1.465-.734a6.481 6.481 0 0 1 1.996-.355 6.629 6.629 0 0 1 3.275.827 6.548 6.548 0 0 1 3.256 5c.252 2.55-1.125 4.356-1.434 4.74z" fill-rule="nonzero"/>
        <circle cx="14.924" cy="2.974" r="2.974"/>
    </g>
</svg>
