<?xml version="1.0" encoding="UTF-8"?>
<svg width="20px" height="20.0012701px" viewBox="0 0 20 20.0012701" version="1.1" xmlns="http://www.w3.org/2000/svg" xmlns:xlink="http://www.w3.org/1999/xlink">
    <title>A7AB9BD0-09D8-4257-A58D-F8EAF61A0CC7</title>
    <g id="Symbols" stroke="none" stroke-width="1" fill="none" fill-rule="evenodd">
        <g id="Icon/info0-small" fill="#39AD90">
            <path d="M10.25,17 C9.8372093,17 9.50290698,16.638404 9.50290698,16.1957606 L9.50290698,8.6053616 L8.74709302,8.6053616 C8.33430233,8.6053616 8,8.24376559 8,7.80112219 C8,7.36159601 8.33430233,7 8.74709302,7 L10.25,7 C10.6627907,7 11,7.36159601 11,7.80112219 L11,16.1957606 C11,16.638404 10.6627907,17 10.25,17" id="Fill-1"></path>
            <path d="M9.7275,4.8735 L9.7275,4.1235 C9.7275,3.6975 10.0725,3.3525 10.4985,3.3525 C10.9245,3.3525 11.2725,3.6975 11.2725,4.1235 L11.2725,4.8735 C11.2725,5.2995 10.9245,5.6475 10.4985,5.6475 C10.0725,5.6475 9.7275,5.2995 9.7275,4.8735 Z" id="Fill-3"></path>
            <g id="demo-icon">
                <path d="M4.08126017,4.07772847 C2.49732175,5.65896949 1.62758402,7.76094049 1.62758402,9.99944434 C1.62758402,12.234773 2.49732175,14.336744 4.08126017,15.917985 C7.34436377,19.1820729 12.6580169,19.1788977 15.9179463,15.917985 C19.1810499,12.6538971 19.1810499,7.34181636 15.9179463,4.07772847 C12.6548427,0.813640585 7.34118954,0.816815768 4.08126017,4.07772847 M2.92584216,17.0769267 C-0.975280721,13.1714519 -0.975280721,6.82426157 2.92584216,2.92196195 C6.83013927,-0.973987315 13.1722414,-0.973987315 17.0765385,2.92196195 C20.9744872,6.82426157 20.9744872,13.1714519 17.0765385,17.0769267 C15.12439,19.026489 12.5627901,20.0012701 9.99801611,20.0012701 C7.4364163,20.0012701 4.87799072,19.026489 2.92584216,17.0769267 Z" id="Fill-5"></path>
            </g>
        </g>
    </g>
</svg>