<?xml version="1.0" encoding="UTF-8"?>
<svg width="45px" height="45px" viewBox="0 0 45 45" version="1.1" xmlns="http://www.w3.org/2000/svg" xmlns:xlink="http://www.w3.org/1999/xlink">
    <title>65EDB02A-F69F-487C-B627-58EA4C321C93</title>
    <g id="Symbols" stroke="none" stroke-width="1" fill="none" fill-rule="evenodd">
        <g id="Icon/user" fill-rule="nonzero">
            <path d="M45,22.5 C45,34.9264063 34.9264063,45 22.5,45 C10.0735937,45 0,34.9264063 0,22.5 C0,10.0735937 10.0735937,0 22.5,0 C34.9264063,0 45,10.0735937 45,22.5 Z" id="Fill-1" fill="#CBEAE4"></path>
            <path d="M18.4345992,24.0291262 C15.9132797,25.6302436 12.3643187,26.1750354 10.6752259,28.3673903 C9.32082794,30.1476705 8.75066632,31.8888606 8.73844969,33.6430808 C8.73787505,33.70366 8.73752182,33.7630832 8.73844969,33.8236623 C8.74020229,33.9447155 8.74566625,34.0654534 8.75262508,34.1867167 C8.7994298,35.0057697 9.70949246,35.2716243 10.3846038,35.4383351 C14.5050666,36.1853025 18.5055794,36.7041919 22.2815534,36.6990673 C26.0575274,36.7036139 30.0580402,36.1851449 34.178503,35.4383351 C34.8536143,35.2716243 35.7654296,35.0057697 35.8122343,34.1867167 C35.8191931,34.0654534 35.8229045,33.9447155 35.8246571,33.8236623 C35.825585,33.7630832 35.8252317,33.70366 35.8246571,33.6430808 C35.8124405,31.8888606 35.244083,30.1476705 33.889685,28.3673903 C32.2030665,26.1781878 28.6615283,25.6320825 26.1408789,24.0363768 C25.1008662,25.1668894 23.6550238,25.9068164 22.1132008,25.856903 C20.6871525,25.7886004 19.3985284,25.0722641 18.4345992,24.0291262" id="Fill-2" fill="#39AD90"></path>
            <path d="M22.7184466,8.73786408 C16.7362532,8.74128652 16.8105168,13.8131536 16.8105168,13.8131536 L16.7714897,16.512587 C16.2823433,16.5062607 16.1650485,16.9753959 16.1650485,17.9141331 C16.1650485,19.3210203 17.0518333,20.7915341 17.8547979,21.5518889 C17.8787694,21.6488066 17.9109627,21.7449982 17.9349876,21.8275519 C18.6494874,24.0624134 20.503033,25.7130725 22.7225575,25.776699 C24.9421355,25.7130725 26.789488,24.0633986 27.4998768,21.8275519 C27.5302015,21.7320344 27.5613271,21.6351168 27.5820953,21.5518889 C28.3850599,20.7915341 29.2718447,19.3210203 29.2718447,17.9141331 C29.2718447,16.9753959 29.1545499,16.5063644 28.6654035,16.512587 L28.6263764,13.8131536 C28.6263764,13.8131536 28.70064,8.74050868 22.7184466,8.73786408" id="Fill-3" fill="#39AD90"></path>
        </g>
    </g>
</svg>