<svg width="15.652" height="16.307" viewBox="0 0 15.652 16.307" xmlns="http://www.w3.org/2000/svg">
    <g fill="#39ad90" fill-rule="evenodd">
        <path d="M8.696.733V8.26c0 .977-1.74.977-1.74 0V.733c0-.977 1.74-.977 1.74 0z"/>
        <path d="M13.913 8.836c0-2.471-1.5-4.483-3.778-5.402-.9-.345-.3-1.954.66-1.552 2.938 1.207 4.857 3.793 4.857 6.954 0 4.138-3.478 7.47-7.856 7.47-4.317 0-7.855-3.39-7.795-7.528 0-3.16 1.979-5.747 4.857-6.896 1.02-.402 1.62 1.207.66 1.552-2.22.92-3.778 2.93-3.778 5.402 0 3.218 2.758 5.804 6.116 5.804 3.299 0 6.057-2.586 6.057-5.804z"/>
    </g>
</svg>
