<svg width="28" height="28" viewBox="0 0 28 28" xmlns="http://www.w3.org/2000/svg" xmlns:xlink="http://www.w3.org/1999/xlink">
    <defs>
        <path id="a" d="M0 0h28v28H0z"/>
    </defs>
    <g fill="none" fill-rule="evenodd">
        <mask id="b" fill="#fff">
            <use xlink:href="#a"/>
        </mask>
        <path d="M14 26.47C7.126 26.47 1.53 20.874 1.53 14 1.53 7.125 7.126 1.531 14 1.531c6.876 0 12.47 5.594 12.47 12.47 0 6.874-5.594 12.468-12.47 12.468M14 0C6.28 0 0 6.28 0 14s6.28 14 14 14 14-6.28 14-14S21.72 0 14 0" fill="#3AB395" mask="url(#b)"/>
        <path d="m15.584 8.217-5.34 4.76a.683.683 0 0 0 0 1.046l5.34 4.76a.876.876 0 0 0 .586.217.877.877 0 0 0 .587-.217.683.683 0 0 0 0-1.045L12.002 13.5l4.755-4.24a.683.683 0 0 0 0-1.044.902.902 0 0 0-1.173 0z" fill="#3AB395"/>
    </g>
</svg>
