<svg width="20" height="20" viewBox="0 0 20 20" xmlns="http://www.w3.org/2000/svg" style="background:#000">
    <g fill="none" fill-rule="evenodd">
        <path fill="#000" d="M0 0h20v20H0z"/>
        <path d="M10.25 17c-.413 0-.747-.362-.747-.804v-7.59h-.756C8.334 8.605 8 8.243 8 7.8c0-.44.334-.801.747-.801h1.503c.413 0 .75.362.75.801v8.395c0 .442-.337.804-.75.804M10.498 5.647a.773.773 0 0 1-.77-.774v-.75a.773.773 0 0 1 1.545 0v.75a.776.776 0 0 1-.774.774" fill="#FFF"/>
        <path d="M4.081 4.078a8.308 8.308 0 0 0-2.453 5.921c0 2.236.87 4.338 2.453 5.919 3.263 3.264 8.577 3.26 11.837 0 3.263-3.264 3.263-8.576 0-11.84C12.655.814 7.34.817 4.08 4.078M2.926 17.077c-3.901-3.906-3.901-10.253 0-14.155 3.904-3.896 10.246-3.896 14.15 0 3.898 3.902 3.898 10.25 0 14.155A9.983 9.983 0 0 1 9.999 20a9.974 9.974 0 0 1-7.072-2.924z" fill="#FFF"/>
    </g>
</svg>
