<?xml version="1.0" encoding="UTF-8"?>
<svg width="20px" height="20px" viewBox="0 0 20 20" version="1.1" xmlns="http://www.w3.org/2000/svg" xmlns:xlink="http://www.w3.org/1999/xlink">
    <title>E2E6C643-84F3-4C9E-ACB8-969D3C68BC94</title>
    <defs>
        <polygon id="path-1" points="0 0 3.97444685 0 3.97444685 3.97395403 0 3.97395403"></polygon>
    </defs>
    <g id="Symbols" stroke="none" stroke-width="1" fill="none" fill-rule="evenodd">
        <g id="edit">
            <path d="M3.44228195,1.9762062 L12.9047751,1.9762062 L11.5891657,3.29181562 L3.44228195,3.29181562 C2.27336568,3.29181562 1.31560943,4.24957188 1.31560943,5.41848815 L1.31560943,16.557718 C1.31560943,17.7266343 2.27336568,18.6843906 3.44228195,18.6843906 L14.5815119,18.6843906 C15.7504281,18.6843906 16.7081957,17.7266343 16.7081957,16.557718 L16.7081957,8.12272052 L18.0237938,6.8070998 L18.0237938,16.557718 C18.0237938,18.4528518 16.4766456,20 14.5815119,20 L3.44228195,20 C1.54714819,20 0,18.4528518 0,16.557718 L0,5.41848815 C0,3.52335439 1.54714819,1.9762062 3.44228195,1.9762062" id="Fill-1" fill="#009498"></path>
            <polygon id="Fill-3" fill="#009498" points="6.85035695 10.5881602 5.92022774 13.9363725 9.26778518 13.0055884"></polygon>
            <polygon id="Fill-5" fill="#009498" points="15.4077128 1.83477878 7.22661987 10.0158717 9.84006799 12.6293198 18.0211609 4.44888173"></polygon>
            <g id="Group-9" transform="translate(15.881986, 0.000000)">
                <mask id="mask-2" fill="white">
                    <use xlink:href="#path-1"></use>
                </mask>
                <g id="Clip-8"></g>
                <path d="M3.71395727,1.61375567 L2.36019836,0.259996766 C2.01287892,-0.0866678469 1.44717375,-0.0866678469 1.10050914,0.259996766 L0,1.36050591 L2.61344813,3.97395403 L3.71395727,2.87344489 C4.06127671,2.52679157 4.06127671,1.96107511 3.71395727,1.61375567" id="Fill-7" fill="#009498" mask="url(#mask-2)"></path>
            </g>
        </g>
    </g>
</svg>