<svg width="13" height="11" viewBox="0 0 13 11" xmlns="http://www.w3.org/2000/svg" xmlns:xlink="http://www.w3.org/1999/xlink">
    <defs>
        <path id="a" d="M0 0h13v10.52H0z"/>
    </defs>
    <g fill="none" fill-rule="evenodd">
        <mask id="b" fill="#fff">
            <use xlink:href="#a"/>
        </mask>
        <path d="M2.064 2.627 1.032 3.943 0 5.26h1.24v.001c0 1.453.589 2.768 1.54 3.72a5.244 5.244 0 0 0 3.72 1.54 5.244 5.244 0 0 0 3.779-1.6l-.976-1.246A3.687 3.687 0 0 1 6.5 8.96a3.687 3.687 0 0 1-2.616-1.083A3.687 3.687 0 0 1 2.802 5.26h1.325L3.095 3.942 2.064 2.627zM6.5 1.562a3.687 3.687 0 0 0-2.802 1.284L2.722 1.6l.059-.06A5.244 5.244 0 0 1 6.5 0c1.452 0 2.767.589 3.719 1.54a5.244 5.244 0 0 1 1.54 3.718H13l-1.032 1.316-1.032 1.316-1.031-1.316-1.032-1.316h1.326c0-1.02-.415-1.944-1.083-2.613A3.687 3.687 0 0 0 6.5 1.562z" fill="#FFF" mask="url(#b)"/>
    </g>
</svg>
