<svg width="20" height="20" viewBox="0 0 20 20" xmlns="http://www.w3.org/2000/svg">
    <g fill="none" fill-rule="evenodd">
        <rect fill="#0C6E56" width="20" height="20" rx="4"/>
        <path d="M18.834 3.022c-.663.257-2.021 1.192-3.416 2.226a35.55 35.55 0 0 0-7.82 7.954L5.39 9.678c-.66-1.052-2.09-1.395-3.193-.767a.677.677 0 0 0-.106.813l3.425 5.464.72 1.15.034.052c.559.815 1.819.809 2.4.008.123-.168 3.698-5.493 4.603-6.675 1.989-2.596 5.533-6.418 5.647-6.496a.713.713 0 0 0 .061-.072.094.094 0 0 0-.012-.128.106.106 0 0 0-.134-.005" fill="#FFF"/>
    </g>
</svg>
